<svg xmlns="http://www.w3.org/2000/svg" width="512" height="512" viewBox="0 0 512 512" fill="none" stroke-linecap="round" stroke-linejoin="round" stroke-width="2" style="color:var(--icon-ink,#d4d4d8)" role="img" aria-label="Send NDA"><title>Send NDA</title><desc>Send a confidentiality agreement for signature.</desc><path d="M78 228 250 124 422 228V412H78ZM78 228 250 337 422 228" stroke="var(--icon-ink, #d4d4d8)" fill="none" /><rect x="146" y="101" width="208" height="197" stroke="var(--icon-ink, #d4d4d8)" fill="var(--icon-surface, #09090b)" /><path d="M169 131L224 131" stroke="var(--icon-detail, #85968f)" fill="none" /><path d="M169 260L330 260" stroke="var(--icon-detail, #85968f)" fill="none" /><rect x="201" y="189" width="99" height="63" stroke="var(--icon-accent, #34d399)" fill="var(--icon-surface, #09090b)" rx="5"/><path d="M218 189V170A33 33 0 0 1 284 170V189" stroke="var(--icon-accent, #34d399)" fill="none" /><circle cx="250" cy="216" r="5" stroke="var(--icon-accent, #34d399)" fill="none"/><path d="M250 221L250 234" stroke="var(--icon-accent, #34d399)" fill="none" /><path d="M270 365H446M423 342 446 365 423 388" stroke="var(--icon-accent, #34d399)" fill="none" /></svg>
